<svg width="101" height="101" viewBox="0 0 101 101" fill="none" xmlns="http://www.w3.org/2000/svg">
<path d="M41.597 62.1458C47.6425 61.6273 53.721 61.6273 59.7665 62.1458C63.0725 62.3674 66.3561 62.8502 69.5869 63.5899C76.5752 64.997 81.136 67.7741 83.0486 71.8473C84.5766 75.2314 84.5362 79.1233 82.9382 82.4745C80.9889 86.5477 76.4281 89.3248 69.3294 90.7689C66.1096 91.4938 62.8385 91.9642 59.5458 92.176C55.9046 92.5833 52.815 92.5833 49.9461 92.5833H48.8059C47.1807 92.4071 45.9486 91.026 45.9486 89.3803C45.9486 87.7347 47.1807 86.3536 48.8059 86.1774L51.3225 86.1768C53.8449 86.1473 56.3827 86.0293 58.9206 85.8071C61.9145 85.611 64.8897 85.1902 67.8214 84.5481C72.8604 83.4372 76.0235 81.845 77.0166 79.7344C77.7891 78.1198 77.7891 76.239 77.0166 74.6244C76.0235 72.4768 72.8604 70.8105 67.9318 69.8107C64.9546 69.1383 61.9291 68.7049 58.8838 68.5147C53.1944 67.9963 47.4702 67.9963 41.7809 68.5147C38.7748 68.7108 35.7873 69.1316 32.8432 69.7737C27.8043 70.8846 24.678 72.4768 23.6481 74.5874C23.2832 75.389 23.095 76.2606 23.0964 77.1424C23.0943 78.0361 23.2824 78.92 23.6481 79.7344C25.3987 82.1414 28.0622 83.7101 31.0042 84.0667L31.431 84.1825C32.3989 84.5188 33.1587 85.3068 33.4547 86.3124C33.7929 87.4615 33.4695 88.7048 32.6151 89.5395C31.7607 90.3742 30.5167 90.6624 29.3859 90.2875C24.644 89.5092 20.485 86.6637 18.0207 82.5115C16.4371 79.1485 16.4371 75.2474 18.0207 71.8843C19.9701 67.7001 24.5308 64.997 31.5559 63.5529C34.8634 62.8326 38.2198 62.3623 41.597 62.1458ZM41.9345 10.1303C50.3091 6.64212 59.9463 8.57824 66.3496 15.0353C72.7528 21.4923 74.6601 31.1978 71.1815 39.6231C67.703 48.0484 59.5241 53.5331 50.4611 53.5182C38.1046 53.4977 28.0985 43.4075 28.0985 30.9677L28.1193 29.9937C28.4924 21.2621 33.859 13.4939 41.9345 10.1303ZM50.4611 14.8602C46.2114 14.8504 42.1324 16.5431 39.1239 19.5649C36.1155 22.5867 34.4247 26.6893 34.4247 30.9677C34.4099 37.5009 38.3076 43.3991 44.2987 45.9096C50.2899 48.4202 57.1934 47.0481 61.7874 42.4337C66.3813 37.8193 67.7601 30.8724 65.2801 24.8351C62.8002 18.7978 56.9505 14.8602 50.4611 14.8602Z" fill="white"/>
</svg>
