<svg width="80" height="80" viewBox="0 0 80 80" fill="none" xmlns="http://www.w3.org/2000/svg">
<path d="M63.3333 36.6666H43.3333V16.6666C43.3333 15.7825 42.9821 14.9347 42.3569 14.3096C41.7318 13.6844 40.884 13.3333 39.9999 13.3333C39.1159 13.3333 38.268 13.6844 37.6429 14.3096C37.0178 14.9347 36.6666 15.7825 36.6666 16.6666V36.6666H16.6666C15.7825 36.6666 14.9347 37.0178 14.3096 37.6429C13.6844 38.268 13.3333 39.1159 13.3333 39.9999C13.3333 40.884 13.6844 41.7318 14.3096 42.3569C14.9347 42.9821 15.7825 43.3333 16.6666 43.3333H36.6666V63.3333C36.6666 64.2173 37.0178 65.0652 37.6429 65.6903C38.268 66.3154 39.1159 66.6666 39.9999 66.6666C40.884 66.6666 41.7318 66.3154 42.3569 65.6903C42.9821 65.0652 43.3333 64.2173 43.3333 63.3333V43.3333H63.3333C64.2173 43.3333 65.0652 42.9821 65.6903 42.3569C66.3154 41.7318 66.6666 40.884 66.6666 39.9999C66.6666 39.1159 66.3154 38.268 65.6903 37.6429C65.0652 37.0178 64.2173 36.6666 63.3333 36.6666Z" fill="white"/>
</svg>
