<svg width="24" height="24" viewBox="0 0 24 24" fill="none" xmlns="http://www.w3.org/2000/svg">
<path d="M22.4999 10.4999H13.4999V1.49999C13.4999 1.10217 13.3419 0.720641 13.0606 0.439338C12.7793 0.158035 12.3978 0 11.9999 0C11.6021 0 11.2206 0.158035 10.9393 0.439338C10.658 0.720641 10.4999 1.10217 10.4999 1.49999V10.4999H1.49999C1.10217 10.4999 0.720641 10.658 0.439338 10.9393C0.158035 11.2206 0 11.6021 0 11.9999C0 12.3978 0.158035 12.7793 0.439338 13.0606C0.720641 13.3419 1.10217 13.4999 1.49999 13.4999H10.4999V22.4999C10.4999 22.8977 10.658 23.2792 10.9393 23.5605C11.2206 23.8418 11.6021 23.9999 11.9999 23.9999C12.3978 23.9999 12.7793 23.8418 13.0606 23.5605C13.3419 23.2792 13.4999 22.8977 13.4999 22.4999V13.4999H22.4999C22.8977 13.4999 23.2792 13.3419 23.5605 13.0606C23.8418 12.7793 23.9999 12.3978 23.9999 11.9999C23.9999 11.6021 23.8418 11.2206 23.5605 10.9393C23.2792 10.658 22.8977 10.4999 22.4999 10.4999Z" fill="#121214"/>
</svg>
