<svg width="48" height="48" viewBox="0 0 48 48" fill="none" xmlns="http://www.w3.org/2000/svg">
<path d="M32.775 6C29.3625 6 26.1452 7.56956 24 10.12C21.8547 7.56956 18.6375 6 15.225 6C9.17981 6 4.5 10.7082 4.5 16.7902C4.5 24.2448 11.1298 30.229 21.1721 39.449L24 42L26.8279 39.449C36.8701 30.2289 43.5 24.2447 43.5 16.7902C43.5 10.7082 38.8202 6 32.775 6ZM25.2034 36.8678L24.8078 37.2309L24 37.9597L23.1922 37.231L22.7972 36.8683C18.0705 32.5294 13.9883 28.782 11.2898 25.4314C8.66878 22.177 7.5 19.512 7.5 16.7902C7.5 14.6466 8.28956 12.6716 9.72328 11.2293C11.1522 9.79172 13.1061 9 15.225 9C17.6751 9 20.0972 10.1407 21.7041 12.0511L24 14.7807L26.2958 12.0511C27.9028 10.1407 30.3248 9 32.775 9C34.894 9 36.8478 9.79172 38.2768 11.2292C39.7104 12.6716 40.5 14.6465 40.5 16.7902C40.5 19.512 39.3312 22.1769 36.7104 25.4312C34.0119 28.7818 29.93 32.5289 25.2034 36.8678Z" fill="#E80D71"/>
</svg>
