<svg width="100" height="100" viewBox="0 0 100 100" fill="none" xmlns="http://www.w3.org/2000/svg">
<rect x="9" y="17" width="73" height="58" fill="white"/>
<path fill-rule="evenodd" clip-rule="evenodd" d="M97.4708 64.602V35.515C97.4708 8.947 91.1978 2.626 64.6218 2.626C-0.368233 2.209 2.19276 -0.433994 2.62876 64.553C2.62876 91.121 8.90176 97.442 35.4778 97.442H57.5368C85.7728 97.929 98.1808 95.988 97.4708 64.602ZM79.1948 70.282H72.2788C69.6608 70.282 68.8708 68.158 64.1778 63.467C60.0778 59.516 58.3488 59.022 57.3118 59.022C55.8788 59.022 55.4838 59.417 55.4838 61.392V67.614C55.4838 69.293 54.9408 70.281 50.5438 70.281C43.2328 70.281 35.1818 65.836 29.4508 57.639C20.8558 45.639 18.5338 36.552 18.5338 34.725C18.5338 33.688 18.9288 32.749 20.9048 32.749H27.8208C29.5988 32.749 30.2408 33.539 30.9328 35.366C33.7678 44.66 43.4788 60.125 43.6278 51.218V41.045C43.3318 36.403 40.8618 36.008 40.8618 34.329C40.8618 33.588 41.5538 32.749 42.6398 32.749H53.5068C54.9888 32.749 55.4828 33.49 55.4828 35.267V48.996C55.6708 52.288 57.7188 50.993 59.7808 48.848C64.7698 43.317 68.2768 34.724 68.2768 34.724C68.7218 33.687 69.5118 32.749 71.2898 32.749H78.2058C80.2808 32.749 80.7248 33.786 80.2808 35.268C79.4408 39.317 70.9938 51.169 70.9938 51.219C70.2528 52.355 69.9568 52.948 70.9938 54.281C72.9848 56.762 87.4928 69.864 79.1948 70.282Z" fill="#345E90"/>
</svg>
