<svg width="324" height="324" viewBox="0 0 324 324" fill="none" xmlns="http://www.w3.org/2000/svg">
<path d="M229.5 121.5V94.5C229.5 56.7 199.8 27 162 27C124.2 27 94.5 56.7 94.5 94.5V121.5C71.55 121.5 54 139.05 54 162V256.5C54 279.45 71.55 297 94.5 297H229.5C252.45 297 270 279.45 270 256.5V162C270 139.05 252.45 121.5 229.5 121.5ZM121.5 94.5C121.5 71.55 139.05 54 162 54C184.95 54 202.5 71.55 202.5 94.5V121.5H121.5V94.5ZM176.85 209.25L175.5 210.6V229.5C175.5 237.6 170.1 243 162 243C153.9 243 148.5 237.6 148.5 229.5V210.6C140.4 202.5 139.05 190.35 147.15 182.25C155.25 174.15 167.4 172.8 175.5 180.9C183.6 187.65 184.95 201.15 176.85 209.25Z" fill="#3F3838"/>
</svg>
