<svg width="24" height="24" viewBox="0 0 24 24" fill="none" xmlns="http://www.w3.org/2000/svg">
<path d="M12 2.39999C7.895 2.39999 4.5542 5.7408 4.5542 9.84576C4.5542 13.8509 11.4278 21.1699 11.7197 21.4771C11.7926 21.5539 11.8963 21.6 12 21.6C12.1037 21.6 12.2073 21.5539 12.2803 21.4771C12.5721 21.1699 19.4457 13.8509 19.4457 9.84576C19.4457 5.7408 16.1049 2.39999 12 2.39999ZM12 13.0144C10.2508 13.0144 8.82765 11.5929 8.82765 9.84581C8.82765 8.09662 10.2508 6.67349 12 6.67349C13.7493 6.67349 15.1725 8.09662 15.1725 9.84581C15.1725 11.5929 13.7493 13.0144 12 13.0144Z" fill="#E80D71"/>
</svg>
