<svg width="24" height="23" viewBox="0 0 24 23" fill="none" xmlns="http://www.w3.org/2000/svg">
<mask id="mask0_53_364" style="mask-type:luminance" maskUnits="userSpaceOnUse" x="-2" y="-2" width="27" height="27">
<path d="M-1.01438 -1.17235H24.5008V24.3428H-1.01438V-1.17235Z" fill="white"/>
</mask>
<g mask="url(#mask0_53_364)">
<path d="M1.43841 23C0.201597 23 -0.343621 22.1016 0.22577 21.0038L10.7064 0.82332C11.2758 -0.274503 12.2092 -0.274503 12.7792 0.82332L23.2599 21.0038C23.8306 22.1016 23.2847 23 22.0473 23H1.43841Z" fill="#FFCC4D"/>
<path d="M10.2452 6.65676C10.2452 5.78253 10.8904 5.24134 11.7438 5.24134C12.5771 5.24134 13.2432 5.80335 13.2432 6.65676V14.6725C13.2432 15.526 12.5771 16.088 11.7438 16.088C10.8904 16.088 10.2452 15.5461 10.2452 14.6725V6.65676ZM10.1196 18.9396C10.1203 18.5091 10.2917 18.0965 10.5961 17.7921C10.9006 17.4878 11.3133 17.3166 11.7438 17.316C12.1743 17.3166 12.587 17.4878 12.8915 17.7921C13.196 18.0965 13.3674 18.5091 13.3681 18.9396C13.3675 19.3702 13.1962 19.783 12.8918 20.0875C12.5873 20.392 12.1744 20.5633 11.7438 20.5639C11.3132 20.5633 10.9004 20.392 10.5959 20.0875C10.2914 19.783 10.1201 19.3702 10.1196 18.9396Z" fill="#231F20"/>
</g>
</svg>
