<svg width="80" height="80" viewBox="0 0 80 80" fill="none" xmlns="http://www.w3.org/2000/svg">
<path d="M73.3334 19.3333C70.8279 20.4203 68.1782 21.1388 65.4667 21.4666C68.3273 19.7577 70.471 17.0692 71.5001 13.9C68.8119 15.5002 65.8693 16.6276 62.8001 17.2333C60.7486 15.0085 58.0166 13.5276 55.0328 13.0228C52.0489 12.518 48.9819 13.0178 46.3127 14.4439C43.6435 15.87 41.5232 18.1417 40.2842 20.9028C39.0452 23.6638 38.7577 26.7579 39.4667 29.7C34.0315 29.4251 28.7149 28.0098 23.8623 25.5462C19.0096 23.0825 14.7296 19.6256 11.3001 15.4C10.0972 17.5005 9.46515 19.8794 9.46675 22.3C9.46248 24.5479 10.0141 26.762 11.0726 28.7452C12.1311 30.7283 13.6635 32.419 15.5334 33.6666C13.36 33.6075 11.233 33.0243 9.33341 31.9666V32.1333C9.3497 35.2829 10.4534 38.3303 12.4578 40.7599C14.4622 43.1894 17.2443 44.8521 20.3334 45.4666C19.1443 45.8285 17.9097 46.0193 16.6667 46.0333C15.8064 46.0233 14.9482 45.9452 14.1001 45.8C14.9798 48.5093 16.6822 50.8771 18.9703 52.5738C21.2585 54.2705 24.0187 55.2118 26.8667 55.2666C22.0574 59.0509 16.1197 61.1162 10.0001 61.1333C8.88587 61.137 7.77253 61.0702 6.66675 60.9333C12.9148 64.9675 20.1961 67.109 27.6334 67.1C32.7657 67.1533 37.8572 66.1834 42.6105 64.2469C47.3637 62.3104 51.6835 59.4463 55.3174 55.8216C58.9514 52.197 61.8266 47.8846 63.7753 43.1363C65.7239 38.388 66.7069 33.2991 66.6667 28.1666C66.6667 27.6 66.6667 27 66.6667 26.4C69.2824 24.4493 71.5383 22.0581 73.3334 19.3333Z" fill="white"/>
</svg>
