<svg width="44" height="44" viewBox="0 0 44 44" fill="none" xmlns="http://www.w3.org/2000/svg">
<g clip-path="url(#clip0_4_646)">
<path d="M21.384 37.576L6.908 23.232C6.292 22.66 5.808 22 5.368 21.296C2.992 17.38 3.608 12.364 6.908 9.10803C8.8 7.21603 11.352 6.16003 14.036 6.16003C18.26 6.16003 20.9 8.62403 22 10.032C23.1 8.62403 25.74 6.16003 29.964 6.16003C32.648 6.16003 35.2 7.21603 37.092 9.10803C40.348 12.364 41.008 17.38 38.632 21.296C38.192 22 37.708 22.66 37.092 23.232L22.616 37.576C22.264 37.928 21.736 37.928 21.384 37.576ZM14.036 7.92003C11.792 7.92003 9.724 8.80003 8.14 10.34C5.456 13.024 4.928 17.16 6.864 20.372C7.216 20.944 7.656 21.516 8.14 22L22 35.728L35.86 22C36.344 21.516 36.784 20.988 37.136 20.372C39.072 17.116 38.588 12.98 35.86 10.34C34.276 8.80003 32.164 7.92003 29.964 7.92003C26.796 7.92003 24.156 9.63603 22.748 12.012C22.396 12.584 21.56 12.584 21.208 12.012C19.844 9.63603 17.204 7.92003 14.036 7.92003Z" fill="white"/>
<path d="M415.36 -162.8V578.16H-369.6V-162.8H415.36ZM418.88 -166.32H-373.12V581.68H418.88V-166.32Z" fill="#0000FF"/>
</g>
<defs>
<clipPath id="clip0_4_646">
<rect width="44" height="44" fill="white"/>
</clipPath>
</defs>
</svg>
