<svg width="29" height="29" viewBox="0 0 29 29" fill="none" xmlns="http://www.w3.org/2000/svg">
<path fill-rule="evenodd" clip-rule="evenodd" d="M14.5002 26.0999C20.9067 26.0999 26.1002 20.9064 26.1002 14.4999C26.1002 8.09344 20.9067 2.89995 14.5002 2.89995C8.09369 2.89995 2.9002 8.09344 2.9002 14.4999C2.9002 20.9064 8.09369 26.0999 14.5002 26.0999ZM19.8755 12.6252C20.4417 12.059 20.4417 11.1409 19.8755 10.5746C19.3092 10.0084 18.3911 10.0084 17.8249 10.5746L13.0502 15.3493L11.1755 13.4746C10.6092 12.9084 9.69114 12.9084 9.12489 13.4746C8.55863 14.0409 8.55863 14.959 9.12489 15.5252L12.0249 18.4252C12.5911 18.9915 13.5092 18.9915 14.0755 18.4252L19.8755 12.6252Z" fill="#E80D71"/>
</svg>
