<svg width="80" height="80" viewBox="0 0 80 80" fill="none" xmlns="http://www.w3.org/2000/svg">
<path d="M23.3334 31.6667C20.572 31.6667 18.3334 33.9053 18.3334 36.6667C18.3334 39.4282 20.572 41.6667 23.3334 41.6667C26.0936 41.6637 28.3304 39.427 28.3334 36.6667C28.3334 33.9053 26.0948 31.6667 23.3334 31.6667ZM23.3334 38.3334C22.413 38.3334 21.6667 37.5872 21.6667 36.6667C21.6667 35.7463 22.413 35.0001 23.3334 35.0001C24.2532 35.0019 24.9982 35.7469 25.0001 36.6667C25.0001 37.5872 24.2538 38.3334 23.3334 38.3334ZM65.0001 20.0001H60.0001V8.33342C60.0001 8.3328 60.0001 8.33423 60.0001 8.33342C59.9995 7.41362 59.2534 6.66614 58.3334 6.66675H21.6667C21.6661 6.66675 21.6676 6.66675 21.6667 6.66675C20.7469 6.66736 19.9995 7.41341 20.0001 8.33342V20.0001H15.0001C10.3995 20.0044 6.67102 23.7328 6.66675 28.3334V50.0001C6.67285 55.5205 11.1463 59.994 16.6667 60.0001H20.0001V71.6667C20.0001 71.6661 20.0001 71.6674 20.0001 71.6667C20.0007 72.5867 20.7467 73.334 21.6667 73.3334H58.3334C58.3326 73.3334 58.334 73.3334 58.3334 73.3334C59.2532 73.3328 60.0007 72.5867 60.0001 71.6667V60.0001H63.3334C68.8538 59.994 73.3273 55.5205 73.3334 50.0001V28.3334C73.3291 23.7328 69.6007 20.0044 65.0001 20.0001ZM23.3334 10.0001H56.6667V20.0001H23.3334V10.0001ZM56.6667 70.0001H23.3334V50.0001H56.6667V70.0001ZM70.0001 50.0001C69.9954 53.6801 67.0134 56.6621 63.3334 56.6667H60.0001V48.3334C60.0001 48.3328 60.0001 48.3342 60.0001 48.3334C59.9995 47.4136 59.2534 46.6661 58.3334 46.6667H21.6667C21.6661 46.6667 21.6676 46.6667 21.6667 46.6667C20.7469 46.6674 19.9995 47.4134 20.0001 48.3334V56.6667H16.6667C12.9867 56.6621 10.0048 53.6801 10.0001 50.0001V28.3334C10.0031 25.5732 12.2399 23.3365 15.0001 23.3334H21.6667H58.3334H65.0001C67.7603 23.3365 69.997 25.5732 70.0001 28.3334V50.0001Z" fill="white"/>
</svg>
