<svg width="29" height="29" viewBox="0 0 29 29" fill="none" xmlns="http://www.w3.org/2000/svg">
<path d="M24.206 4.59912V24.4007C24.206 24.641 24.1105 24.8715 23.9405 25.0415C23.7706 25.2114 23.5401 25.3069 23.2997 25.3069H9.12598C8.88562 25.3069 8.65512 25.2114 8.48516 25.0415C8.31521 24.8715 8.21973 24.641 8.21973 24.4007V10.4626L13.2041 3.69287H23.2997C23.5401 3.69287 23.7706 3.78835 23.9405 3.95831C24.1105 4.12826 24.206 4.35877 24.206 4.59912Z" fill="#EDEEEF"/>
<path d="M13.2042 3.70215V9.51574C13.2042 9.75609 13.1087 9.9866 12.9387 10.1566C12.7688 10.3265 12.5383 10.422 12.2979 10.422H8.24243L13.2042 3.70215Z" fill="#CFD0D1"/>
<path d="M18.0796 16.0723H5.7002C5.19969 16.0723 4.79395 16.478 4.79395 16.9785V21.5279C4.79395 22.0284 5.19969 22.4341 5.7002 22.4341H18.0796C18.5801 22.4341 18.9858 22.0284 18.9858 21.5279V16.9785C18.9858 16.478 18.5801 16.0723 18.0796 16.0723Z" fill="#FF3717"/>
<path d="M9.39781 19.6202V20.599H8.60938V17.912H9.69687C9.90854 17.9005 10.1202 17.9345 10.3177 18.0117C10.4582 18.0753 10.5765 18.1794 10.6575 18.3107C10.7395 18.4475 10.7818 18.6044 10.7798 18.7638C10.7852 18.8795 10.7652 18.995 10.7214 19.1022C10.6776 19.2094 10.6109 19.3058 10.5261 19.3846C10.3372 19.5489 10.0919 19.6334 9.84187 19.6202H9.39781ZM9.39781 19.0448H9.66062C9.89172 19.0448 10.005 18.9541 10.005 18.7774C10.005 18.6007 9.90078 18.5237 9.68781 18.5237H9.39781V19.0448ZM11.0744 20.599V17.912H12.0667C12.2476 17.8984 12.4291 17.9273 12.5967 17.9966C12.7643 18.0658 12.9134 18.1734 13.0319 18.3107C13.2454 18.5727 13.3593 18.9017 13.3536 19.2396C13.3727 19.5986 13.2489 19.9505 13.0092 20.2184C12.8954 20.3445 12.7552 20.4441 12.5986 20.5099C12.4419 20.5756 12.2727 20.6061 12.103 20.599H11.0744ZM11.8628 19.9782H12.0667C12.1345 19.977 12.2008 19.958 12.2589 19.923C12.317 19.888 12.3648 19.8383 12.3975 19.7788C12.4924 19.6155 12.538 19.4283 12.5289 19.2396C12.5325 19.0633 12.492 18.8889 12.4111 18.7321C12.3793 18.6683 12.3301 18.6149 12.2691 18.5779C12.2082 18.541 12.138 18.5222 12.0667 18.5237H11.8628V19.9782ZM15.2884 19.5931H14.4547V20.599H13.6889V17.912H15.5422V18.5509H14.4547V19.004H15.2884V19.5931Z" fill="#EDEEEF"/>
</svg>
