<svg width="18" height="13" viewBox="0 0 18 13" fill="none" xmlns="http://www.w3.org/2000/svg">
<path d="M2.4375 0C1.09403 0 0 1.09403 0 2.4375V10.5625C0 11.906 1.09403 13 2.4375 13H15.4375C16.781 13 17.875 11.906 17.875 10.5625V2.4375C17.875 1.09403 16.781 0 15.4375 0H2.4375ZM2.4375 0.8125H15.4375C16.3447 0.8125 17.0625 1.53034 17.0625 2.4375V10.5625C17.0625 11.4697 16.3447 12.1875 15.4375 12.1875H2.4375C2.22365 12.1891 2.01161 12.1482 1.81372 12.0671C1.61584 11.986 1.43605 11.8664 1.28484 11.7152C1.13362 11.5639 1.01398 11.3842 0.932891 11.1863C0.851802 10.9884 0.810878 10.7763 0.8125 10.5625V2.4375C0.8125 1.53034 1.53034 0.8125 2.4375 0.8125Z" fill="#E80D71"/>
<path d="M2.85584 2.43749C2.80052 2.43592 2.74547 2.44566 2.69405 2.46613C2.64264 2.4866 2.59594 2.51736 2.55684 2.55652C2.48068 2.6327 2.4379 2.73601 2.4379 2.84374C2.4379 2.95146 2.48068 3.05477 2.55684 3.13096L7.43184 8.00595C8.26018 8.8347 9.61543 8.8347 10.4438 8.00595L15.3188 3.13096C15.3949 3.05477 15.4377 2.95146 15.4377 2.84374C15.4377 2.73601 15.3949 2.6327 15.3188 2.55652C15.2426 2.48036 15.1393 2.43757 15.0316 2.43757C14.9238 2.43757 14.8205 2.48036 14.7443 2.55652L9.86934 7.43152C9.74741 7.55457 9.60232 7.65224 9.44243 7.7189C9.28254 7.78556 9.11103 7.81988 8.93781 7.81988C8.76458 7.81988 8.59307 7.78556 8.43319 7.7189C8.2733 7.65224 8.1282 7.55457 8.00628 7.43152L3.13128 2.55652C3.05802 2.48315 2.95948 2.44056 2.85584 2.43749Z" fill="#E80D71"/>
</svg>
