<svg width="52" height="52" viewBox="0 0 52 52" fill="none" xmlns="http://www.w3.org/2000/svg">
<g clip-path="url(#clip0_86_1139)">
<path d="M11.5243 31.4243L9.71425 38.1814L3.09857 38.3214C1.12145 34.6542 0 30.4586 0 26C0 21.6886 1.04853 17.6228 2.90712 14.0428H2.90855L8.79836 15.1227L11.3785 20.9771C10.8384 22.5514 10.5441 24.2414 10.5441 26C10.5443 27.9086 10.89 29.7372 11.5243 31.4243Z" fill="#FBBB00"/>
<path d="M51.5454 21.1429C51.844 22.7157 51.9997 24.34 51.9997 26C51.9997 27.8614 51.804 29.6772 51.4311 31.4286C50.1655 37.3886 46.8583 42.5929 42.2769 46.2757L42.2755 46.2743L34.857 45.8958L33.807 39.3415C36.847 37.5586 39.2227 34.7686 40.4742 31.4286H26.5713V21.1429H51.5454Z" fill="#518EF8"/>
<path d="M42.2758 46.2743L42.2772 46.2757C37.8215 49.8571 32.1615 52 26.0001 52C16.0986 52 7.49009 46.4658 3.09863 38.3215L11.5244 31.4243C13.72 37.2843 19.3729 41.4558 26.0001 41.4558C28.8486 41.4558 31.5172 40.6857 33.8072 39.3414L42.2758 46.2743Z" fill="#28B446"/>
<path d="M42.5958 5.98569L34.1729 12.8814C31.803 11.4 29.0015 10.5442 26.0001 10.5442C19.2229 10.5442 13.4643 14.907 11.3787 20.9771L2.90865 14.0428H2.90723C7.2344 5.69999 15.9515 0 26.0001 0C32.3087 0 38.0929 2.24717 42.5958 5.98569Z" fill="#F14336"/>
</g>
<defs>
<clipPath id="clip0_86_1139">
<rect width="52" height="52" fill="white"/>
</clipPath>
</defs>
</svg>
