<svg width="25" height="25" viewBox="0 0 25 25" fill="none" xmlns="http://www.w3.org/2000/svg">
<path d="M11.3758 5.1724H5.8655C5.69402 5.1724 5.52957 5.24051 5.40832 5.36177C5.28707 5.48302 5.21895 5.64747 5.21895 5.81895V11.4224C5.21895 11.5939 5.28707 11.7583 5.40832 11.8796C5.52957 12.0008 5.69402 12.0689 5.8655 12.0689H11.3758C11.5473 12.0689 11.7118 12.0008 11.833 11.8796C11.9543 11.7583 12.0224 11.5939 12.0224 11.4224V5.81895C12.0224 5.64747 11.9543 5.48302 11.833 5.36177C11.7118 5.24051 11.5473 5.1724 11.3758 5.1724ZM10.7293 10.7758H6.51205V6.4655H10.7293V10.7758ZM9.48274 7.7586H7.7586V9.48274H9.48274V7.7586ZM2.58619 10.3448C2.81482 10.3448 3.0341 10.254 3.19576 10.0923C3.35743 9.93064 3.44826 9.71137 3.44826 9.48274V4.31033C3.44849 4.08176 3.53938 3.86262 3.701 3.701C3.86262 3.53938 4.08176 3.44849 4.31033 3.44826H9.48274C9.71137 3.44826 9.93064 3.35743 10.0923 3.19576C10.254 3.0341 10.3448 2.81482 10.3448 2.58619C10.3448 2.35755 10.254 2.13828 10.0923 1.97662C9.93064 1.81495 9.71137 1.72412 9.48274 1.72412H4.31033C3.62463 1.72481 2.96722 1.9975 2.48236 2.48236C1.9975 2.96722 1.72481 3.62463 1.72412 4.31033V9.48274C1.72412 9.71137 1.81495 9.93064 1.97662 10.0923C2.13828 10.254 2.35755 10.3448 2.58619 10.3448ZM11.3758 12.931H5.8655C5.69402 12.931 5.52957 12.9991 5.40832 13.1204C5.28707 13.2416 5.21895 13.4061 5.21895 13.5776V19.181C5.21895 19.3525 5.28707 19.5169 5.40832 19.6382C5.52957 19.7594 5.69402 19.8276 5.8655 19.8276H11.3758C11.5473 19.8276 11.7118 19.7594 11.833 19.6382C11.9543 19.5169 12.0224 19.3525 12.0224 19.181V13.5776C12.0224 13.4061 11.9543 13.2416 11.833 13.1204C11.7118 12.9991 11.5473 12.931 11.3758 12.931ZM10.7293 18.5345H6.51205V14.2241H10.7293V18.5345ZM9.48274 15.5172H7.7586V17.2414H9.48274V15.5172ZM9.48274 21.5517H4.31033C4.08176 21.5515 3.86262 21.4606 3.701 21.299C3.53938 21.1373 3.44849 20.9182 3.44826 20.6896V15.5172C3.44826 15.2886 3.35743 15.0693 3.19576 14.9076C3.0341 14.746 2.81482 14.6552 2.58619 14.6552C2.35755 14.6552 2.13828 14.746 1.97662 14.9076C1.81495 15.0693 1.72412 15.2886 1.72412 15.5172V20.6896C1.72481 21.3753 1.9975 22.0327 2.48236 22.5176C2.96722 23.0025 3.62463 23.2752 4.31033 23.2758H9.48274C9.71137 23.2758 9.93064 23.185 10.0923 23.0233C10.254 22.8617 10.3448 22.6424 10.3448 22.4138C10.3448 22.1851 10.254 21.9659 10.0923 21.8042C9.93064 21.6425 9.71137 21.5517 9.48274 21.5517ZM22.4138 14.6552C22.1851 14.6552 21.9659 14.746 21.8042 14.9076C21.6425 15.0693 21.5517 15.2886 21.5517 15.5172V20.6896C21.5515 20.9182 21.4606 21.1373 21.299 21.299C21.1373 21.4606 20.9182 21.5515 20.6896 21.5517H15.5172C15.2886 21.5517 15.0693 21.6425 14.9076 21.8042C14.746 21.9659 14.6552 22.1851 14.6552 22.4138C14.6552 22.6424 14.746 22.8617 14.9076 23.0233C15.0693 23.185 15.2886 23.2758 15.5172 23.2758H20.6896C21.3753 23.2752 22.0327 23.0025 22.5176 22.5176C23.0025 22.0327 23.2752 21.3753 23.2758 20.6896V15.5172C23.2758 15.2886 23.185 15.0693 23.0233 14.9076C22.8617 14.746 22.6424 14.6552 22.4138 14.6552ZM15.0862 17.6724H13.362V19.3965H15.0862V17.6724ZM13.362 15.081H15.0862V13.3569H13.362V15.081ZM20.6896 1.72412H15.5172C15.2886 1.72412 15.0693 1.81495 14.9076 1.97662C14.746 2.13828 14.6552 2.35755 14.6552 2.58619C14.6552 2.81482 14.746 3.0341 14.9076 3.19576C15.0693 3.35743 15.2886 3.44826 15.5172 3.44826H20.6896C20.9182 3.44849 21.1373 3.53938 21.299 3.701C21.4606 3.86262 21.5515 4.08176 21.5517 4.31033V9.48274C21.5517 9.71137 21.6425 9.93064 21.8042 10.0923C21.9659 10.254 22.1851 10.3448 22.4138 10.3448C22.6424 10.3448 22.8617 10.254 23.0233 10.0923C23.185 9.93064 23.2758 9.71137 23.2758 9.48274V4.31033C23.2752 3.62463 23.0025 2.96722 22.5176 2.48236C22.0327 1.9975 21.3753 1.72481 20.6896 1.72412ZM15.5172 9.48274H17.2414V7.7586H15.5172V9.48274ZM17.2414 17.2414V15.5172H15.5172V17.2414H17.2414ZM19.1345 12.0689C19.3059 12.0689 19.4704 12.0008 19.5916 11.8796C19.7129 11.7583 19.781 11.5939 19.781 11.4224V5.81895C19.781 5.64747 19.7129 5.48302 19.5916 5.36177C19.4704 5.24051 19.3059 5.1724 19.1345 5.1724H13.6241C13.4526 5.1724 13.2882 5.24051 13.1669 5.36177C13.0457 5.48302 12.9776 5.64747 12.9776 5.81895V11.4224C12.9776 11.5939 13.0457 11.7583 13.1669 11.8796C13.2882 12.0008 13.4526 12.0689 13.6241 12.0689H19.1345ZM14.2707 6.4655H18.4879V10.7758H14.2707V6.4655ZM19.3965 13.3569H17.6724V15.081H19.3965V13.3569ZM17.6724 19.3965H19.3965V17.6724H17.6724V19.3965Z" fill="white"/>
</svg>
